<svg height="480pt" viewBox="0 0 480 480" width="480pt" xmlns="http://www.w3.org/2000/svg"><path d="m408 72h-336v400h400v-400zm0 0" fill="#9bc9ff"/><path d="m408 72v-64h-400v400h64v-336zm0 0" fill="#9bc9ff"/><g fill="#1e81ce"><path d="m472 64h-56v-56c0-4.417969-3.582031-8-8-8h-400c-4.417969 0-8 3.582031-8 8v400c0 4.417969 3.582031 8 8 8h56v56c0 4.417969 3.582031 8 8 8h400c4.417969 0 8-3.582031 8-8v-400c0-4.417969-3.582031-8-8-8zm-456 336v-384h384v48h-328c-4.417969 0-8 3.582031-8 8v328zm448 64h-384v-384h384zm0 0"/><path d="m392 264h-112v-112c0-4.417969-3.582031-8-8-8s-8 3.582031-8 8v112h-112c-4.417969 0-8 3.582031-8 8s3.582031 8 8 8h112v112c0 4.417969 3.582031 8 8 8s8-3.582031 8-8v-112h112c4.417969 0 8-3.582031 8-8s-3.582031-8-8-8zm0 0"/></g></svg>